<?xml version="1.0" encoding="UTF-8" standalone="no"?>
<!-- Created with Inkscape (http://www.inkscape.org/) -->

<svg
   xmlns:dc="http://purl.org/dc/elements/1.1/"
   xmlns:cc="http://creativecommons.org/ns#"
   xmlns:rdf="http://www.w3.org/1999/02/22-rdf-syntax-ns#"
   xmlns:svg="http://www.w3.org/2000/svg"
   xmlns="http://www.w3.org/2000/svg"
   xmlns:sodipodi="http://sodipodi.sourceforge.net/DTD/sodipodi-0.dtd"
   xmlns:inkscape="http://www.inkscape.org/namespaces/inkscape"
   version="1.1"
   id="svg815"
   width="1170"
   height="722"
   viewBox="0 0 1170 722"
   sodipodi:docname="Ziply Fiber logo.svg"
   inkscape:version="0.92.4 (5da689c313, 2019-01-14)">
  <metadata
     id="metadata821">
    <rdf:RDF>
      <cc:Work
         rdf:about="">
        <dc:format>image/svg+xml</dc:format>
        <dc:type
           rdf:resource="http://purl.org/dc/dcmitype/StillImage" />
        <dc:title></dc:title>
      </cc:Work>
    </rdf:RDF>
  </metadata>
  <defs
     id="defs819" />
  <sodipodi:namedview
     pagecolor="#ffffff"
     bordercolor="#666666"
     borderopacity="1"
     objecttolerance="10"
     gridtolerance="10"
     guidetolerance="10"
     inkscape:pageopacity="0"
     inkscape:pageshadow="2"
     inkscape:window-width="1920"
     inkscape:window-height="1137"
     id="namedview817"
     showgrid="false"
     showguides="false"
     inkscape:zoom="0.70710678"
     inkscape:cx="701.78992"
     inkscape:cy="344.51927"
     inkscape:window-x="1912"
     inkscape:window-y="-8"
     inkscape:window-maximized="1"
     inkscape:current-layer="svg815" />
  <g
     id="g4758">
    <path
       id="path4707"
       d="m 1142.002,96.232422 v 13.999998 14 h 2.9628 3.0606 v -18.5 l 7.9785,12.36914 7.9766,-12.36914 v 18.5 h 6.0215 v -14 -13.999998 h -7.4903 l -6.5078,11.302738 -6.5078,-11.302738 z"
       style="fill:#2c963e;fill-opacity:1"
       inkscape:connector-curvature="0" />
    <path
       id="path4705"
       d="m 1115.002,96.232422 v 4.999998 h 8 v 11.5 11.5 h 3.5 3.5 v -11.5 -11.5 h 8 v -4.999998 h -11.5 z"
       style="fill:#2c963e;fill-opacity:1"
       inkscape:connector-curvature="0" />
  </g>
  <g
     id="g4754">
    <path
       id="path4715"
       d="m 831.03125,142.23242 102.17773,260.89063 -52.30859,140.10937 h 74.61914 l 150.52927,-401 h -74.6211 L 969.87305,306.21094 905.65234,142.23242 Z"
       style="fill:#2c963e;fill-opacity:1"
       inkscape:connector-curvature="0" />
    <path
       id="path4713"
       d="m 300.00195,142.23242 v 290 h 75 v -290 z"
       style="fill:#2c963e;fill-opacity:1"
       inkscape:connector-curvature="0" />
    <path
       id="path4711"
       d="m 0.00195313,142.23047 v 70.00195 H 146.92773 L 0.00195313,394.49609 v 37.73633 H 266.50195 v -70.00195 l -146.52343,0.002 146.52343,-182.30664 v -37.69531 z"
       style="fill:#2c963e;fill-opacity:1"
       inkscape:connector-curvature="0" />
    <path
       id="path4709"
       d="m 565.92188,137.91211 c -9.35231,0.0109 -18.76186,0.59438 -25.41993,1.74609 -17.04227,2.94796 -38.68653,10.9859 -51.69726,19.19922 l -3.80274,2.40039 v -19.02539 h -75 v 432 h 75 V 413.11914 l 4.25,2.64453 c 13.64567,8.49147 32.42155,15.64224 50.25,19.13672 14.11585,2.76679 40.61661,2.49718 55.5,-0.56445 51.31561,-10.55601 92.97606,-45.95848 111.34766,-94.6211 14.0976,-37.34171 12.28209,-79.87036 -4.97461,-116.47461 -5.4012,-11.45695 -8.81147,-16.99063 -16.95117,-27.50781 -23.01619,-29.73902 -55.91692,-49.50665 -93.42188,-56.13281 -6.43271,-1.13649 -15.72777,-1.69837 -25.08007,-1.6875 z m -0.97461,69.6543 c 24.82749,0.30193 47.42883,12.19743 60.41796,32.38671 8.47721,13.17633 12.54734,26.3609 13.35938,43.2793 1.59776,33.28844 -14.18896,62.30118 -41.08984,75.51563 -5.03681,2.47422 -12.41296,5.15961 -16.44727,5.98633 -10.35536,2.122 -27.82053,1.86917 -37.18555,-0.53907 -12.7688,-3.28353 -23.36897,-9.29694 -32.51367,-18.44531 -4.40709,-4.40886 -9.70467,-10.94258 -11.77344,-14.51758 -8.24818,-14.25353 -12.10923,-33.59748 -10.56445,-52.93164 0.94137,-11.78205 3.10598,-19.57344 8.55664,-30.8164 10.55994,-21.7818 31.37488,-36.27487 56.48633,-39.32813 3.61614,-0.43968 7.20712,-0.63298 10.75391,-0.58984 z m -36.03125,283.91601 h 111.72265 z"
       style="fill:#2c963e;fill-opacity:1"
       inkscape:connector-curvature="0" />
    <path
       id="path901"
       d="M 735.00195,0.23242188 V 432.23242 h 75 V 0.23242188 Z"
       style="fill:#2c963e;fill-opacity:1"
       inkscape:connector-curvature="0" />
    <ellipse
       ry="44.370953"
       rx="44.194172"
       cy="49.69479"
       cx="337.50378"
       id="path4628"
       style="fill:#00bce9;fill-opacity:1;stroke-width:1.05477214" />
  </g>
  <g
     id="g4746">
    <path
       id="path4723"
       d="m 655.50586,580.23242 v 139 h 21 v -139 z"
       style="fill:#00bce9;fill-opacity:1"
       inkscape:connector-curvature="0" />
    <path
       id="path4721"
       d="m 934.54297,577.49414 c -6.53678,0.29164 -12.86886,1.20494 -16.94141,2.64648 -14.1329,5.0025 -26.01578,14.26283 -34.08008,26.5586 -19.5161,29.75642 -15.36508,73.79467 9.10352,96.57617 9.1581,8.5267 15.37165,12.07735 28.87695,16.50195 5.6909,1.8644 9.32519,2.309 19.42969,2.375 6.836,0.0448 13.811,-0.35622 15.5,-0.89062 1.6891,-0.5344 6.01514,-1.89067 9.61524,-3.01367 8.83169,-2.755 17.27902,-7.91898 25.48632,-15.58008 l 6.82422,-6.36914 -4.8164,-4.28321 c -8.4981,-7.55689 -8.8805,-7.6726 -12.7168,-3.8457 -11.6475,11.619 -31.11017,17.92701 -47.07227,15.25781 -14.6423,-2.4485 -28.08329,-11.79239 -34.55859,-24.02539 -3.3935,-6.4109 -6.19141,-15.15646 -6.19141,-19.35156 v -2.81836 h 55.15039 55.15036 l -0.6601,-10.88086 c -0.8317,-13.6945 -3.47686,-24.26517 -8.78713,-35.11914 -3.2999,-6.74483 -5.83066,-10.15317 -12.25586,-16.50781 -9.2516,-9.14998 -17.39802,-13.70375 -28.88672,-16.15039 -4.89115,-1.04163 -11.63315,-1.37172 -18.16992,-1.08008 z m 3.19726,17.84375 c 6.54422,-0.10286 12.98939,0.93759 17.5293,3.09766 7.2016,3.37471 15.27506,11.41249 19.38086,19.29687 3.0495,5.85604 6.35156,16.93796 6.35156,21.31446 v 2.18554 H 936.625 892.24609 l 1.38477,-6.75 c 3.1891,-15.5423 13.10533,-29.04223 25.98633,-35.3789 4.93663,-2.4169 11.57883,-3.66277 18.12304,-3.76563 z"
       style="fill:#00bce9;fill-opacity:1"
       inkscape:connector-curvature="0" />
    <path
       id="path4719"
       d="m 1106.002,576.95703 -6.4766,0.66406 c -9.2073,0.94331 -18.2283,3.9732 -25.0957,8.42969 -7.1444,4.63624 -16.9505,14.92643 -21.2461,22.29688 -1.0612,1.82081 -2.1231,3.64056 -3.1816,5.46289 v -33.57813 h -21 v 139 h 21 v -32.91211 c 0,-38.147 0.7238,-44.04483 6.9648,-56.70703 8.6861,-17.62314 26.4983,-29.30163 44.7852,-29.36523 l 4.25,-0.0156 V 588.5957 Z"
       style="fill:#00bce9;fill-opacity:1"
       inkscape:connector-curvature="0" />
    <path
       id="path4717"
       d="m 712.00195,522.23242 v 197 h 21 v -26.40625 c 0.2083,0 4.29971,5.93279 8.62891,10.24219 9.1136,9.0721 14.71087,12.61262 25.85547,16.35742 6.4542,2.1687 9.92752,2.704 17.82812,2.75 23.5899,0.1359 47.77442,-14.3944 58.19922,-34.9668 5.8233,-11.4918 7.77137,-19.62301 8.26367,-34.50781 0.4018,-12.1495 0.16574,-15.2349 -1.75586,-23 -4.0999,-16.56769 -11.62343,-28.65454 -24.01953,-38.58789 -18.6421,-14.93846 -44.1777,-18.22906 -65.5,-8.4414 -7.8803,3.61734 -17.2749,11.09883 -22.5,17.91796 -1.925,2.51226 -4.5875,7.23702 -5,7.25782 v -85.61524 z m 68.22071,74.06446 c 5.76946,-0.25457 11.50747,0.34746 16.04492,1.85742 16.0228,5.33205 27.15847,17.23229 32.35547,34.57812 2.4499,8.1767 2.46921,25.77623 0.0371,33.83203 -5.9233,19.6192 -18.93173,32.30744 -36.54883,35.64844 -16.321,3.0953 -31.56221,-1.48571 -43.69141,-13.13281 -27.3907,-26.3018 -18.85699,-75.35228 15.57031,-89.5 4.6621,-1.91586 10.46296,-3.02864 16.23243,-3.2832 z"
       style="fill:#00bce9;fill-opacity:1"
       inkscape:connector-curvature="0" />
    <path
       id="path4728"
       d="m 616.50195,521.93359 c -13.00275,-0.18013 -21.17874,2.08173 -28.5,7.88477 -10.12048,8.02177 -15.00011,17.48981 -15,36.41406 v 14 h -19 v 18 h 19 v 121 h 21 v -121 h 44 v -18 h -44 v -10.46094 c 0,-16.02388 3.78985,-24.04564 13.21875,-27.98437 4.73612,-1.97834 16.51029,-2.0063 23.78125,-0.0547 3.025,0.81194 7,2.19531 7,2.19531 v -18.97851 l -5.5,-1.47656 c -2.75,-0.76258 -9.95,-1.45527 -16,-1.53907 z"
       style="fill:#00bce9;fill-opacity:1"
       inkscape:connector-curvature="0" />
    <circle
       r="14.5"
       cy="538.12567"
       cx="665.98602"
       id="path4636"
       style="fill:#00bce9;fill-opacity:1;stroke-width:1.04036915" />
  </g>
</svg>
